<svg xmlns="http://www.w3.org/2000/svg" xmlns:xlink="http://www.w3.org/1999/xlink" width="94" height="97"><defs><path id="a" d="M58.605.573v61.902H.41V.573z"/></defs><g fill="none" fill-rule="evenodd"><path d="M30.93 32.523L39 32c-3.364 5.596-5.554 11.164-6.289 16L18 46.092l12.93-13.57zm-2.727 27.373L16 70l9.043-13.061c.331-.482.83-.8 1.4-.905a2.146 2.146 0 0 1 1.864.555 2.213 2.213 0 0 1-.104 3.307m4.069 8.822L16 83l13.138-17.16c.346-.45.85-.742 1.417-.82a2.14 2.14 0 0 1 1.76.551 2.1 2.1 0 0 1 .239 2.847 1.95 1.95 0 0 1-.282.3" fill="#206ecf"/><g transform="translate(35)"><mask id="b" fill="#fff"><use xlink:href="#a"/></mask><path d="M3.32 60.127C.462 57.472.21 53.21.504 50.092l.003-.02c.522-5.487 3.145-12.186 7.384-18.866l.017-.027c2.426-3.82 5.294-7.53 8.528-11.03 15.072-16.311 39.1-21.28 41.46-19.087 2.361 2.194-.75 26.597-15.822 42.909-3.246 3.513-6.726 6.67-10.342 9.387-6.32 4.746-12.783 7.879-18.198 8.819-3.08.534-7.35.612-10.214-2.05" fill="#206ecf" mask="url(#b)"/></g><path d="M42.205 72.894L30 83l9.042-13.065a2.17 2.17 0 0 1 3.268-.348 2.219 2.219 0 0 1-.105 3.307M53.076 79L50 64.508c4.9-1.11 10.441-3.723 15.921-7.508L66 65.071 53.076 79z" fill="#206ecf"/><path d="M42.327 17.247c-20.457 0-37.1 16.642-37.1 37.1 0 20.457 16.643 37.1 37.1 37.1s37.1-16.643 37.1-37.1c0-20.458-16.643-37.1-37.1-37.1M42.5 97C19.065 97 0 77.935 0 54.5S19.065 12 42.5 12 85 31.065 85 54.5 65.935 97 42.5 97" fill="#206ecf"/></g></svg>